<svg id="visual" viewBox="0 0 900 450" width="900" height="450" xmlns="http://www.w3.org/2000/svg" xmlns:xlink="http://www.w3.org/1999/xlink" version="1.1"><rect x="0" y="0" width="900" height="450" fill="#ffffff"></rect><defs><linearGradient id="grad1_0" x1="50%" y1="0%" x2="100%" y2="100%"><stop offset="10%" stop-color="#ffffff" stop-opacity="1"></stop><stop offset="90%" stop-color="#ffffff" stop-opacity="1"></stop></linearGradient></defs><defs><linearGradient id="grad2_0" x1="0%" y1="0%" x2="50%" y2="100%"><stop offset="10%" stop-color="#ffffff" stop-opacity="1"></stop><stop offset="90%" stop-color="#ffffff" stop-opacity="1"></stop></linearGradient></defs><g transform="translate(900, 0)"><path d="M0 247.5C-21.3 242.5 -42.7 237.6 -61.1 228C-79.5 218.3 -94.9 204.1 -111 192.3C-127.1 180.4 -143.8 171 -159.1 159.1C-174.4 147.2 -188.4 132.9 -202.6 117C-216.9 101.1 -231.5 83.8 -239.1 64.1C-246.6 44.3 -247 22.2 -247.5 0L0 0Z" fill="#e2e8f0"></path></g><g transform="translate(0, 450)"><path d="M0 -247.5C21.1 -242.1 42.3 -236.8 61.3 -228.9C80.4 -221.1 97.3 -210.7 117 -202.6C136.7 -194.6 159 -188.8 175 -175C191 -161.2 200.7 -139.5 205.2 -118.5C209.8 -97.5 209.2 -77.3 215.4 -57.7C221.6 -38.1 234.5 -19 247.5 0L0 0Z" fill="#e2e8f0"></path></g></svg>